<svg width="160" height="160" viewBox="0 0 160 160" fill="none" xmlns="http://www.w3.org/2000/svg">
<path d="M51.5 9C23.0573 9 0 32.0573 0 60.5C0 88.9345 23.0441 111.987 51.4755 112L51.5 112H51.5245H58.5275H110C114.112 112 120 107.781 120 100C120 92.2185 114.112 88 110 88H95.0509H58.2888H49.6842C36.1683 88 24 76.0386 24 60C24 43.9614 36.1683 32 49.6842 32H94.4019C85.1734 18.1358 69.4036 9 51.5 9Z" fill="black"/>
<path d="M108.5 151C136.943 151 160 127.943 160 99.5C160 71.0573 136.943 48 108.5 48H101.473H49.6842C45.7456 48 40 52.0386 40 60C40 67.9614 45.7456 72 49.6842 72H64.9491H101.711H110C123.343 72 136 83.7815 136 100C136 116.218 123.343 128 110 128L65.5981 128C74.8266 141.864 90.5964 151 108.5 151Z" fill="black"/>
</svg>
